%
M48
M72
T01C0.02362
T02C0.03200
T03C0.03937
T04C0.04000
T05C0.04700
%
T01
X10161Y49925
X228272Y183783
X228193Y204256
X188547Y239453
X183587Y244413
X178587Y249453
X173587Y254453
X147957Y239413
X143665Y244453
X137720Y249413
X132996Y266461
X117248Y296382
X188902Y289295
X214098Y274335
X229118Y274276
X238508Y296382
X259768Y253862
X249020Y247287
X254020Y242091
X222760Y242051
X214886Y242051
X178665Y224728
X154256Y216067
X143232Y216067
X143232Y207406
X153469Y234453
X107012Y229453
X10161Y253862
X259768Y49925
T02
X321185Y26972
X321185Y16972
X238902Y189020
X238902Y199020
T03
X248843Y92297
X223547Y77091
T04
X219571Y114492
X229571Y114492
X239571Y114492
X209571Y114492
X199571Y114492
X189571Y114492
X179571Y114492
X169571Y114492
X159571Y114492
X149571Y114492
X139571Y114492
X129571Y114492
X119571Y114492
X109571Y114492
X99571Y114492
X89571Y114492
X79571Y114492
X69571Y114492
X59571Y114492
X49571Y114492
X39571Y114492
X29571Y114492
X29925Y89650
X39925Y89650
X49925Y89650
X59925Y89650
X137642Y155161
X147642Y155161
X157642Y155161
X167642Y155161
X177642Y155161
X187642Y155161
X197642Y155161
X197642Y165161
X187642Y165161
X177642Y165161
X167642Y165161
X157642Y165161
X147642Y165161
X137642Y165161
X289413Y191264
X299413Y191264
X309413Y191264
X319413Y191264
X329413Y191264
X339413Y191264
X349413Y191264
X359413Y191264
X369413Y191264
X379413Y191264
X389413Y191264
X399413Y191264
X409413Y191264
X419413Y191264
X429413Y191264
X439413Y191264
X449413Y191264
X459413Y191264
X469413Y191264
X479413Y191264
X489413Y191264
X499413Y191264
X505949Y140909
X515949Y140909
X488783Y140909
X478783Y140909
X481500Y107681
X471500Y107681
X461500Y107681
X451500Y107681
X441500Y107681
X431500Y107681
X421500Y107681
X421500Y97681
X431500Y97681
X441500Y97681
X451500Y97681
X461500Y97681
X471500Y97681
X481500Y97681
X508311Y66618
X518311Y66618
X518311Y56618
X508311Y56618
X508311Y46618
X518311Y46618
X427917Y131421
X417917Y131421
X407917Y131421
X397917Y131421
X334379Y128510
X334379Y139057
X334379Y156857
X308779Y156857
X308779Y139057
X308779Y128510
X308779Y110710
X321185Y93429
X321185Y83429
X321185Y73429
X321185Y63429
X321185Y53429
X321185Y43429
X334379Y110710
X238626Y305949
X228626Y305949
X218626Y305949
X208626Y305949
X198626Y305949
X188626Y305949
X178626Y305949
X168626Y305949
X158626Y305949
X148626Y305949
X138626Y305949
X128626Y305949
X118626Y305949
X108626Y305949
X98626Y305949
X88626Y305949
X78626Y305949
X78626Y315949
X88626Y315949
X98626Y315949
X108626Y315949
X118626Y315949
X128626Y315949
X138626Y315949
X148626Y315949
X158626Y315949
X168626Y315949
X178626Y315949
X188626Y315949
X198626Y315949
X208626Y315949
X218626Y315949
X228626Y315949
X238626Y315949
X238626Y327720
X228626Y327720
X218626Y327720
X208626Y327720
X198626Y327720
X188626Y327720
X178626Y327720
X168626Y327720
X158626Y327720
X148626Y327720
X138626Y327720
X128626Y327720
X118626Y327720
X108626Y327720
X98626Y327720
X88626Y327720
X78626Y327720
X78626Y337720
X88626Y337720
X98626Y337720
X108626Y337720
X118626Y337720
X128626Y337720
X138626Y337720
X148626Y337720
X158626Y337720
X168626Y337720
X178626Y337720
X188626Y337720
X198626Y337720
X208626Y337720
X218626Y337720
X228626Y337720
X238626Y337720
T05
X24925Y25654
X44925Y25654
X64925Y25654
X84925Y25654
X104925Y25654
X124925Y25654
X144925Y25654
X164925Y25654
X184925Y25654
X204925Y25654
X224925Y25654
X244925Y25654
X124965Y62858
X104965Y62858
X45358Y321520
X25358Y321520
M30
