G75*
%MOIN*%
%OFA0B0*%
%FSLAX25Y25*%
%IPPOS*%
%LPD*%
%AMOC8*
5,1,8,0,0,1.08239X$1,22.5*
%
%ADD10R,0.07493X0.03359*%
%ADD11R,0.02000X0.04700*%
%ADD12R,0.07099X0.07898*%
%ADD13R,0.09461X0.03162*%
%ADD14R,0.07898X0.07099*%
%ADD15R,0.10643X0.14580*%
%ADD16R,0.07887X0.07099*%
%ADD17R,0.13595X0.10643*%
%ADD18R,0.08674X0.08674*%
%ADD19R,0.10839X0.10643*%
%ADD20OC8,0.06800*%
%ADD21C,0.07850*%
%ADD22C,0.06800*%
%ADD23R,0.07099X0.07887*%
%ADD24R,0.03400X0.08800*%
%ADD25C,0.06000*%
%ADD26C,0.07099*%
%ADD27R,0.07099X0.03162*%
%ADD28R,0.04737X0.06312*%
%ADD29R,0.05400X0.07100*%
%ADD30R,0.07100X0.05400*%
%ADD31OC8,0.06000*%
%ADD32R,0.10800X0.05800*%
%ADD33R,0.05800X0.10800*%
%ADD34C,0.00400*%
%ADD35R,0.62992X0.15748*%
%ADD36C,0.04762*%
D10*
X0125870Y0194453D03*
X0125870Y0199453D03*
X0125870Y0204453D03*
X0125870Y0209453D03*
X0125870Y0214453D03*
X0125870Y0219453D03*
X0125870Y0224453D03*
X0125870Y0229453D03*
X0125870Y0234453D03*
X0125870Y0239453D03*
X0125870Y0244453D03*
X0125870Y0249453D03*
X0125870Y0254453D03*
X0125870Y0259453D03*
X0163508Y0259453D03*
X0163508Y0254453D03*
X0163508Y0249453D03*
X0163508Y0244453D03*
X0163508Y0239453D03*
X0163508Y0234453D03*
X0163508Y0229453D03*
X0163508Y0224453D03*
X0163508Y0219453D03*
X0163508Y0214453D03*
X0163508Y0209453D03*
X0163508Y0204453D03*
X0163508Y0199453D03*
X0163508Y0194453D03*
D11*
X0195850Y0264855D03*
X0198409Y0264855D03*
X0200969Y0264855D03*
X0203528Y0264855D03*
X0206087Y0264855D03*
X0208646Y0264855D03*
X0211205Y0264855D03*
X0213764Y0264855D03*
X0216323Y0264855D03*
X0218882Y0264855D03*
X0221441Y0264855D03*
X0224000Y0264855D03*
X0226559Y0264855D03*
X0229118Y0264855D03*
X0229118Y0287830D03*
X0226559Y0287830D03*
X0224000Y0287830D03*
X0221441Y0287830D03*
X0218882Y0287830D03*
X0216323Y0287830D03*
X0213764Y0287830D03*
X0211205Y0287830D03*
X0208646Y0287830D03*
X0206087Y0287830D03*
X0203528Y0287830D03*
X0200969Y0287830D03*
X0198409Y0287830D03*
X0195850Y0287830D03*
D12*
X0196862Y0216461D03*
X0185665Y0216461D03*
X0188988Y0191264D03*
X0177791Y0191264D03*
X0219602Y0152957D03*
X0230799Y0152957D03*
X0135445Y0100319D03*
X0124248Y0100319D03*
X0105524Y0100319D03*
X0094327Y0100319D03*
X0094327Y0089295D03*
X0105524Y0089295D03*
X0105075Y0182957D03*
X0116272Y0182957D03*
X0116272Y0211933D03*
X0105075Y0211933D03*
X0318815Y0257406D03*
X0330012Y0257406D03*
X0352870Y0203469D03*
X0364067Y0203469D03*
X0429878Y0203508D03*
X0441075Y0203508D03*
D13*
X0068823Y0205457D03*
X0068823Y0200457D03*
X0068823Y0195457D03*
X0068823Y0190457D03*
X0048350Y0190457D03*
X0048350Y0195457D03*
X0048350Y0200457D03*
X0048350Y0205457D03*
D14*
X0044335Y0220980D03*
X0058705Y0220980D03*
X0058705Y0232177D03*
X0044335Y0232177D03*
X0073075Y0232177D03*
X0073075Y0220980D03*
X0087602Y0220980D03*
X0087602Y0232177D03*
X0087484Y0190524D03*
X0087484Y0179327D03*
X0145988Y0079933D03*
X0145988Y0068736D03*
X0159374Y0068736D03*
X0172760Y0068736D03*
X0172760Y0079933D03*
X0159374Y0079933D03*
X0185752Y0079933D03*
X0185752Y0068736D03*
X0293626Y0101413D03*
X0293626Y0112610D03*
X0293744Y0127988D03*
X0293744Y0139185D03*
X0249256Y0155941D03*
X0249256Y0167138D03*
X0528272Y0116941D03*
X0528272Y0105744D03*
D15*
X0028941Y0143980D03*
X0028941Y0169571D03*
X0032445Y0252839D03*
X0032445Y0278429D03*
D16*
X0024413Y0203272D03*
X0024413Y0192248D03*
X0101622Y0166335D03*
X0101622Y0155311D03*
X0119689Y0155280D03*
X0119689Y0166303D03*
X0072563Y0089689D03*
X0072563Y0078665D03*
X0237720Y0270791D03*
X0237720Y0281815D03*
D17*
X0066736Y0167681D03*
X0066736Y0144059D03*
D18*
X0024492Y0219295D03*
X0024492Y0235043D03*
X0064492Y0257406D03*
X0064492Y0273154D03*
X0215673Y0135752D03*
X0231421Y0135752D03*
D19*
X0120693Y0137445D03*
X0100811Y0137445D03*
D20*
X0137642Y0155161D03*
X0147642Y0155161D03*
X0157642Y0155161D03*
X0167642Y0155161D03*
X0177642Y0155161D03*
X0187642Y0155161D03*
X0197642Y0155161D03*
X0197642Y0165161D03*
X0187642Y0165161D03*
X0177642Y0165161D03*
X0167642Y0165161D03*
X0157642Y0165161D03*
X0147642Y0165161D03*
X0137642Y0165161D03*
X0138626Y0305949D03*
X0148626Y0305949D03*
X0158626Y0305949D03*
X0168626Y0305949D03*
X0178626Y0305949D03*
X0188626Y0305949D03*
X0198626Y0305949D03*
X0208626Y0305949D03*
X0218626Y0305949D03*
X0228626Y0305949D03*
X0238626Y0305949D03*
X0238626Y0315949D03*
X0228626Y0315949D03*
X0218626Y0315949D03*
X0208626Y0315949D03*
X0198626Y0315949D03*
X0188626Y0315949D03*
X0178626Y0315949D03*
X0168626Y0315949D03*
X0158626Y0315949D03*
X0148626Y0315949D03*
X0138626Y0315949D03*
X0128626Y0315949D03*
X0118626Y0315949D03*
X0108626Y0315949D03*
X0098626Y0315949D03*
X0088626Y0315949D03*
X0078626Y0315949D03*
X0078626Y0305949D03*
X0088626Y0305949D03*
X0098626Y0305949D03*
X0108626Y0305949D03*
X0118626Y0305949D03*
X0128626Y0305949D03*
X0128626Y0327720D03*
X0138626Y0327720D03*
X0148626Y0327720D03*
X0158626Y0327720D03*
X0168626Y0327720D03*
X0178626Y0327720D03*
X0188626Y0327720D03*
X0198626Y0327720D03*
X0208626Y0327720D03*
X0218626Y0327720D03*
X0228626Y0327720D03*
X0238626Y0327720D03*
X0238626Y0337720D03*
X0228626Y0337720D03*
X0218626Y0337720D03*
X0208626Y0337720D03*
X0198626Y0337720D03*
X0188626Y0337720D03*
X0178626Y0337720D03*
X0168626Y0337720D03*
X0158626Y0337720D03*
X0148626Y0337720D03*
X0138626Y0337720D03*
X0128626Y0337720D03*
X0118626Y0337720D03*
X0108626Y0337720D03*
X0098626Y0337720D03*
X0088626Y0337720D03*
X0078626Y0337720D03*
X0078626Y0327720D03*
X0088626Y0327720D03*
X0098626Y0327720D03*
X0108626Y0327720D03*
X0118626Y0327720D03*
X0421500Y0107681D03*
X0431500Y0107681D03*
X0441500Y0107681D03*
X0451500Y0107681D03*
X0461500Y0107681D03*
X0471500Y0107681D03*
X0481500Y0107681D03*
X0481500Y0097681D03*
X0471500Y0097681D03*
X0461500Y0097681D03*
X0451500Y0097681D03*
X0441500Y0097681D03*
X0431500Y0097681D03*
X0421500Y0097681D03*
X0508311Y0066618D03*
X0518311Y0066618D03*
X0518311Y0056618D03*
X0508311Y0056618D03*
X0508311Y0046618D03*
X0518311Y0046618D03*
D21*
X0024925Y0029179D02*
X0024925Y0022129D01*
X0044925Y0022129D02*
X0044925Y0029179D01*
X0064925Y0029179D02*
X0064925Y0022129D01*
X0084925Y0022129D02*
X0084925Y0029179D01*
X0104925Y0029179D02*
X0104925Y0022129D01*
X0124925Y0022129D02*
X0124925Y0029179D01*
X0144925Y0029179D02*
X0144925Y0022129D01*
X0164925Y0022129D02*
X0164925Y0029179D01*
X0184925Y0029179D02*
X0184925Y0022129D01*
X0204925Y0022129D02*
X0204925Y0029179D01*
X0224925Y0029179D02*
X0224925Y0022129D01*
X0244925Y0022129D02*
X0244925Y0029179D01*
X0124965Y0059333D02*
X0124965Y0066383D01*
X0104965Y0066383D02*
X0104965Y0059333D01*
X0045358Y0317995D02*
X0045358Y0325045D01*
X0025358Y0325045D02*
X0025358Y0317995D01*
D22*
X0289413Y0194264D02*
X0289413Y0188264D01*
X0299413Y0188264D02*
X0299413Y0194264D01*
X0309413Y0194264D02*
X0309413Y0188264D01*
X0319413Y0188264D02*
X0319413Y0194264D01*
X0329413Y0194264D02*
X0329413Y0188264D01*
X0339413Y0188264D02*
X0339413Y0194264D01*
X0349413Y0194264D02*
X0349413Y0188264D01*
X0359413Y0188264D02*
X0359413Y0194264D01*
X0369413Y0194264D02*
X0369413Y0188264D01*
X0379413Y0188264D02*
X0379413Y0194264D01*
X0389413Y0194264D02*
X0389413Y0188264D01*
X0399413Y0188264D02*
X0399413Y0194264D01*
X0409413Y0194264D02*
X0409413Y0188264D01*
X0419413Y0188264D02*
X0419413Y0194264D01*
X0429413Y0194264D02*
X0429413Y0188264D01*
X0439413Y0188264D02*
X0439413Y0194264D01*
X0449413Y0194264D02*
X0449413Y0188264D01*
X0459413Y0188264D02*
X0459413Y0194264D01*
X0469413Y0194264D02*
X0469413Y0188264D01*
X0479413Y0188264D02*
X0479413Y0194264D01*
X0489413Y0194264D02*
X0489413Y0188264D01*
X0499413Y0188264D02*
X0499413Y0194264D01*
X0505949Y0143909D02*
X0505949Y0137909D01*
X0515949Y0137909D02*
X0515949Y0143909D01*
X0488783Y0143909D02*
X0488783Y0137909D01*
X0478783Y0137909D02*
X0478783Y0143909D01*
X0427917Y0134421D02*
X0427917Y0128421D01*
X0417917Y0128421D02*
X0417917Y0134421D01*
X0407917Y0134421D02*
X0407917Y0128421D01*
X0397917Y0128421D02*
X0397917Y0134421D01*
X0337379Y0139057D02*
X0331379Y0139057D01*
X0331379Y0128510D02*
X0337379Y0128510D01*
X0311779Y0128510D02*
X0305779Y0128510D01*
X0305779Y0139057D02*
X0311779Y0139057D01*
X0311779Y0156857D02*
X0305779Y0156857D01*
X0331379Y0156857D02*
X0337379Y0156857D01*
X0337379Y0110710D02*
X0331379Y0110710D01*
X0311779Y0110710D02*
X0305779Y0110710D01*
X0318185Y0093429D02*
X0324185Y0093429D01*
X0324185Y0083429D02*
X0318185Y0083429D01*
X0318185Y0073429D02*
X0324185Y0073429D01*
X0324185Y0063429D02*
X0318185Y0063429D01*
X0318185Y0053429D02*
X0324185Y0053429D01*
X0324185Y0043429D02*
X0318185Y0043429D01*
X0239571Y0111492D02*
X0239571Y0117492D01*
X0229571Y0117492D02*
X0229571Y0111492D01*
X0219571Y0111492D02*
X0219571Y0117492D01*
X0209571Y0117492D02*
X0209571Y0111492D01*
X0199571Y0111492D02*
X0199571Y0117492D01*
X0189571Y0117492D02*
X0189571Y0111492D01*
X0179571Y0111492D02*
X0179571Y0117492D01*
X0169571Y0117492D02*
X0169571Y0111492D01*
X0159571Y0111492D02*
X0159571Y0117492D01*
X0149571Y0117492D02*
X0149571Y0111492D01*
X0139571Y0111492D02*
X0139571Y0117492D01*
X0129571Y0117492D02*
X0129571Y0111492D01*
X0119571Y0111492D02*
X0119571Y0117492D01*
X0109571Y0117492D02*
X0109571Y0111492D01*
X0099571Y0111492D02*
X0099571Y0117492D01*
X0089571Y0117492D02*
X0089571Y0111492D01*
X0079571Y0111492D02*
X0079571Y0117492D01*
X0069571Y0117492D02*
X0069571Y0111492D01*
X0059571Y0111492D02*
X0059571Y0117492D01*
X0049571Y0117492D02*
X0049571Y0111492D01*
X0039571Y0111492D02*
X0039571Y0117492D01*
X0029571Y0117492D02*
X0029571Y0111492D01*
X0029925Y0092650D02*
X0029925Y0086650D01*
X0039925Y0086650D02*
X0039925Y0092650D01*
X0049925Y0092650D02*
X0049925Y0086650D01*
X0059925Y0086650D02*
X0059925Y0092650D01*
D23*
X0193587Y0176697D03*
X0204610Y0176697D03*
X0188823Y0202996D03*
X0177799Y0202996D03*
X0116185Y0197091D03*
X0105161Y0197091D03*
D24*
X0239020Y0208298D03*
X0244020Y0208298D03*
X0249020Y0208298D03*
X0254020Y0208298D03*
X0254020Y0232498D03*
X0249020Y0232498D03*
X0244020Y0232498D03*
X0239020Y0232498D03*
D25*
X0238902Y0199020D03*
X0238902Y0189020D03*
D26*
X0248843Y0092297D03*
X0223547Y0077091D03*
D27*
X0214673Y0162110D03*
X0214673Y0167110D03*
X0214673Y0172110D03*
X0214673Y0177110D03*
X0235571Y0177071D03*
X0235571Y0172071D03*
X0235571Y0167071D03*
X0235571Y0162110D03*
D28*
X0241776Y0144374D03*
X0249256Y0144374D03*
X0245516Y0135713D03*
D29*
X0177756Y0180654D03*
X0171756Y0180654D03*
X0165756Y0180654D03*
D30*
X0247957Y0270303D03*
X0247957Y0276303D03*
X0247957Y0282303D03*
D31*
X0321185Y0026972D03*
X0321185Y0016972D03*
D32*
X0358902Y0218469D03*
X0358902Y0226343D03*
X0358902Y0234217D03*
X0358902Y0242091D03*
X0358902Y0249965D03*
X0358902Y0257839D03*
X0358902Y0265713D03*
X0358902Y0273587D03*
X0429768Y0273587D03*
X0429768Y0265713D03*
X0429768Y0257839D03*
X0429768Y0249965D03*
X0429768Y0242091D03*
X0429768Y0234217D03*
X0429768Y0226343D03*
X0429768Y0218469D03*
D33*
X0414020Y0206657D03*
X0406146Y0206657D03*
X0398272Y0206657D03*
X0390398Y0206657D03*
X0382524Y0206657D03*
X0374650Y0206657D03*
D34*
X0386661Y0285598D02*
X0389730Y0285598D01*
X0391265Y0286365D02*
X0392032Y0285598D01*
X0393567Y0285598D01*
X0394334Y0286365D01*
X0394334Y0287132D01*
X0393567Y0287900D01*
X0392032Y0287900D01*
X0391265Y0288667D01*
X0391265Y0289434D01*
X0392032Y0290202D01*
X0393567Y0290202D01*
X0394334Y0289434D01*
X0395868Y0290202D02*
X0398170Y0290202D01*
X0398938Y0289434D01*
X0398938Y0287900D01*
X0398170Y0287132D01*
X0395868Y0287132D01*
X0395868Y0285598D02*
X0395868Y0290202D01*
X0400472Y0287900D02*
X0403542Y0287900D01*
X0405076Y0289434D02*
X0405076Y0286365D01*
X0408146Y0289434D01*
X0408146Y0286365D01*
X0407378Y0285598D01*
X0405844Y0285598D01*
X0405076Y0286365D01*
X0405076Y0289434D02*
X0405844Y0290202D01*
X0407378Y0290202D01*
X0408146Y0289434D01*
X0409680Y0290202D02*
X0412750Y0290202D01*
X0412750Y0289434D01*
X0409680Y0286365D01*
X0409680Y0285598D01*
X0414284Y0285598D02*
X0417353Y0290202D01*
X0418888Y0288667D02*
X0420423Y0290202D01*
X0420423Y0285598D01*
X0421957Y0285598D02*
X0418888Y0285598D01*
X0423492Y0285598D02*
X0426561Y0288667D01*
X0426561Y0289434D01*
X0425794Y0290202D01*
X0424259Y0290202D01*
X0423492Y0289434D01*
X0423492Y0285598D02*
X0426561Y0285598D01*
X0389730Y0290202D02*
X0386661Y0290202D01*
X0386661Y0285598D01*
X0386661Y0287900D02*
X0388195Y0287900D01*
D35*
X0394335Y0289335D03*
D36*
X0259768Y0253862D03*
X0249020Y0247287D03*
X0254020Y0242091D03*
X0222760Y0242051D03*
X0214886Y0242051D03*
X0188547Y0239453D03*
X0183587Y0244413D03*
X0178587Y0249453D03*
X0173587Y0254453D03*
X0147957Y0239413D03*
X0143665Y0244453D03*
X0137720Y0249413D03*
X0132996Y0266461D03*
X0117248Y0296382D03*
X0188902Y0289295D03*
X0214098Y0274335D03*
X0229118Y0274276D03*
X0238508Y0296382D03*
X0153469Y0234453D03*
X0178665Y0224728D03*
X0154256Y0216067D03*
X0143232Y0216067D03*
X0143232Y0207406D03*
X0107012Y0229453D03*
X0010161Y0253862D03*
X0228193Y0204256D03*
X0228272Y0183783D03*
X0259768Y0049925D03*
X0010161Y0049925D03*
M02*
